<svg width="811" height="811" viewBox="0 0 811 811" fill="none" xmlns="http://www.w3.org/2000/svg">
<mask id="mask0_1_3" style="mask-type:luminance" maskUnits="userSpaceOnUse" x="66" y="66" width="680" height="680">
<path d="M66.3802 66.3802H745.083V745.083H66.3802V66.3802Z" fill="white"/>
</mask>
<g mask="url(#mask0_1_3)">
<mask id="mask1_1_3" style="mask-type:luminance" maskUnits="userSpaceOnUse" x="66" y="66" width="680" height="680">
<path d="M405.729 66.3802C218.313 66.3802 66.3802 218.312 66.3802 405.729C66.3802 593.151 218.313 745.083 405.729 745.083C593.151 745.083 745.083 593.151 745.083 405.729C745.083 218.312 593.151 66.3802 405.729 66.3802Z" fill="white"/>
</mask>
<g mask="url(#mask1_1_3)">
<path d="M405.729 66.3802C218.313 66.3802 66.3802 218.313 66.3802 405.729C66.3802 593.151 218.313 745.083 405.729 745.083C593.151 745.083 745.084 593.151 745.084 405.729C745.084 218.313 593.151 66.3802 405.729 66.3802Z" stroke="#24547A" stroke-width="60"/>
</g>
</g>
<mask id="mask2_1_3" style="mask-type:luminance" maskUnits="userSpaceOnUse" x="226" y="272" width="262" height="339">
<path d="M226.021 272.401H487.068V610.932H226.021V272.401Z" fill="white"/>
</mask>
<g mask="url(#mask2_1_3)">
<path d="M387.953 511.229C380.135 493.458 376.234 484.182 376.234 483.396C369.01 466.797 342.052 403.906 295.375 294.719C289.318 280.266 278.474 273.036 262.854 273.036H261.974C249.271 273.036 239.411 278.411 232.38 289.151C228.276 295.406 226.229 301.849 226.229 308.49C226.229 312.99 227.203 317.672 229.161 322.552L338.146 576.573C346.937 599.229 363.635 610.557 388.25 610.557C412.469 610.557 429.068 599.234 438.057 576.573L486.422 463.536C409.911 578.745 387.953 511.229 387.953 511.229Z" fill="#24547A"/>
</g>
<mask id="mask3_1_3" style="mask-type:luminance" maskUnits="userSpaceOnUse" x="393" y="200" width="193" height="321">
<path d="M393.734 200.932H585.021V520.401H393.734V200.932Z" fill="white"/>
</mask>
<g mask="url(#mask3_1_3)">
<path d="M557.234 200.948L401.406 331.859L463.687 334.672L394.229 496.594C395.448 499.411 396.885 502.693 398.583 506.557L398.818 507.083L399 507.635C399.135 508.016 403.13 519.271 412.255 519.271C419.229 519.271 439.484 513.214 476.745 457.104L485.812 443.453C503.026 417.531 517.849 390.099 530.089 361.49L585.24 406.135L557.234 200.948Z" fill="#24547A"/>
</g>
<mask id="mask4_1_3" style="mask-type:luminance" maskUnits="userSpaceOnUse" x="0" y="0" width="811" height="811">
<path d="M810.333 0.666992V810.333H0.666992V0.666992H810.333Z" fill="white" stroke="white" stroke-width="1.33333"/>
</mask>
<g mask="url(#mask4_1_3)">
<mask id="mask5_1_3" style="mask-type:luminance" maskUnits="userSpaceOnUse" x="0" y="0" width="812" height="812">
<path d="M405.729 0.666992C629.434 0.667162 810.786 182.02 810.786 405.729C810.786 629.434 629.434 810.786 405.729 810.786C182.02 810.786 0.667162 629.434 0.666992 405.729C0.666992 182.02 182.02 0.666992 405.729 0.666992Z" fill="white" stroke="white" stroke-width="1.33333"/>
</mask>
<g mask="url(#mask5_1_3)">
<path d="M405.729 0C181.651 0 0 181.651 0 405.729C0 629.802 181.651 811.453 405.729 811.453C629.802 811.453 811.453 629.802 811.453 405.729C811.453 181.651 629.802 0 405.729 0Z" stroke="#24547A" stroke-width="80"/>
</g>
</g>
</svg>
